<svg width="40" height="40" viewBox="0 0 40 40" fill="none" xmlns="http://www.w3.org/2000/svg">
<rect width="40" height="40" rx="20" fill="#FF623E"/>
<path d="M19.4353 25.12C19.1393 25.12 18.8233 25.076 18.4873 24.988C18.1513 24.892 17.8753 24.756 17.6593 24.58C17.5553 24.492 17.4713 24.38 17.4073 24.244C17.3513 24.1 17.3233 23.964 17.3233 23.836C17.3233 23.7 17.3793 23.572 17.4913 23.452C17.6113 23.332 17.7793 23.272 17.9953 23.272C18.1393 23.272 18.3193 23.348 18.5353 23.5C18.6633 23.58 18.8033 23.652 18.9553 23.716C19.1073 23.78 19.2633 23.812 19.4233 23.812C19.8073 23.812 20.1393 23.744 20.4193 23.608C20.6993 23.464 20.9153 23.268 21.0673 23.02C21.2193 22.772 21.2953 22.48 21.2953 22.144C21.2953 21.84 21.2233 21.58 21.0793 21.364C20.9433 21.148 20.7593 20.98 20.5273 20.86C20.3033 20.74 20.0593 20.68 19.7953 20.68C19.5473 20.68 19.3313 20.72 19.1473 20.8C18.9633 20.88 18.7953 20.964 18.6433 21.052C18.4913 21.132 18.3393 21.172 18.1873 21.172C17.9233 21.172 17.7273 21.116 17.5993 21.004C17.4713 20.884 17.3913 20.744 17.3593 20.584C17.3273 20.424 17.3193 20.28 17.3353 20.152L17.7073 17.236C17.7393 17.068 17.8193 16.932 17.9473 16.828C18.0833 16.716 18.2433 16.66 18.4273 16.66H21.8953C22.0873 16.66 22.2473 16.724 22.3753 16.852C22.5033 16.98 22.5673 17.14 22.5673 17.332C22.5673 17.516 22.5033 17.672 22.3753 17.8C22.2473 17.92 22.0873 17.98 21.8953 17.98H18.7993L18.9313 17.872L18.6073 20.308L18.4513 19.852C18.4993 19.772 18.6033 19.696 18.7633 19.624C18.9233 19.552 19.1073 19.492 19.3153 19.444C19.5233 19.388 19.7273 19.36 19.9273 19.36C20.4633 19.36 20.9433 19.484 21.3673 19.732C21.7913 19.972 22.1233 20.304 22.3633 20.728C22.6113 21.144 22.7353 21.616 22.7353 22.144C22.7353 22.744 22.5993 23.268 22.3273 23.716C22.0553 24.164 21.6713 24.512 21.1753 24.76C20.6873 25 20.1073 25.12 19.4353 25.12Z" fill="white"/>
</svg>
