<svg width="40" height="40" viewBox="0 0 40 40" fill="none" xmlns="http://www.w3.org/2000/svg">
<rect width="40" height="40" rx="20" fill="#FF623E"/>
<path d="M21.141 25C20.941 25 20.773 24.932 20.637 24.796C20.501 24.652 20.433 24.476 20.433 24.268V18.628L20.685 18.688L18.369 21.556L18.309 21.4H22.557C22.749 21.4 22.909 21.464 23.037 21.592C23.165 21.72 23.229 21.88 23.229 22.072C23.229 22.256 23.165 22.412 23.037 22.54C22.909 22.66 22.749 22.72 22.557 22.72H17.313C17.145 22.72 16.981 22.652 16.821 22.516C16.669 22.38 16.593 22.212 16.593 22.012C16.593 21.836 16.653 21.676 16.773 21.532L20.565 16.888C20.629 16.8 20.713 16.732 20.817 16.684C20.921 16.628 21.037 16.6 21.165 16.6C21.373 16.6 21.541 16.672 21.669 16.816C21.805 16.952 21.873 17.124 21.873 17.332V24.268C21.873 24.476 21.801 24.652 21.657 24.796C21.521 24.932 21.349 25 21.141 25Z" fill="white"/>
</svg>
