<svg width="40" height="40" viewBox="0 0 40 40" fill="none" xmlns="http://www.w3.org/2000/svg">
<rect width="40" height="40" rx="20" fill="#FF623E"/>
<path d="M22.0803 23.68C22.2723 23.68 22.4323 23.744 22.5603 23.872C22.6883 24 22.7523 24.16 22.7523 24.352C22.7523 24.536 22.6883 24.692 22.5603 24.82C22.4323 24.94 22.2723 25 22.0803 25H18.0003C17.7923 25 17.6283 24.936 17.5083 24.808C17.3883 24.68 17.3283 24.516 17.3283 24.316C17.3283 24.116 17.4003 23.94 17.5443 23.788L20.1603 20.992C20.4563 20.672 20.6883 20.344 20.8563 20.008C21.0323 19.672 21.1203 19.38 21.1203 19.132C21.1203 18.732 21.0043 18.412 20.7723 18.172C20.5403 17.924 20.2323 17.8 19.8483 17.8C19.6963 17.8 19.5403 17.836 19.3803 17.908C19.2203 17.98 19.0643 18.08 18.9123 18.208C18.7683 18.336 18.6323 18.484 18.5043 18.652C18.4083 18.78 18.3123 18.86 18.2163 18.892C18.1203 18.924 18.0323 18.94 17.9523 18.94C17.7763 18.94 17.6123 18.876 17.4603 18.748C17.3163 18.612 17.2443 18.456 17.2443 18.28C17.2443 18.144 17.2883 18.012 17.3763 17.884C17.4723 17.756 17.5883 17.624 17.7243 17.488C17.9243 17.288 18.1483 17.112 18.3963 16.96C18.6443 16.808 18.9003 16.692 19.1643 16.612C19.4283 16.524 19.6843 16.48 19.9323 16.48C20.4683 16.48 20.9323 16.588 21.3243 16.804C21.7243 17.012 22.0323 17.312 22.2483 17.704C22.4643 18.088 22.5723 18.544 22.5723 19.072C22.5723 19.512 22.4403 20.004 22.1763 20.548C21.9203 21.084 21.5723 21.588 21.1323 22.06L19.5123 23.788L19.3803 23.68H22.0803Z" fill="white"/>
</svg>
